# xmcd
#
# Track frame offsets: 
#        183
#        15480
#        30168
#        51688
#        66088
#        81480
#        105940
#        124688
#        147233
#        165020
#        185100
#        203655
#
# Disc length: 2852 seconds
#
# Revision: 0
# Processed by: cddbd v1.4PL0 Copyright (c) Steve Scherf et al.
# Submitted via: ExactAudioCopy v0.90b3
#
DISCID=980b220c
DTITLE=Tonight - Vlasta Pruchova
DYEAR=1992
DGENRE=Blues
TTITLE0=I'm Confessin'
TTITLE1=A Foggy Day
TTITLE2=But Beatiful
TTITLE3=Docela vsedni obycejny den(Just An Ordinary Day)
TTITLE4=The Man I Love
TTITLE5=It's Might As Wellbe Spring
TTITLE6=Children
TTITLE7=Cry Me A River
TTITLE8=I Want To Be Happy
TTITLE9=Good By
TTITLE10=They Can't Take That Away From Me
TTITLE11=Flying Home
EXTD=
EXTT0=
EXTT1=
EXTT2=
EXTT3=
EXTT4=
EXTT5=
EXTT6=
EXTT7=
EXTT8=
EXTT9=
EXTT10=
EXTT11=
PLAYORDER=
